<svg width="364" height="100" viewBox="0 0 364 100" fill="none" xmlns="http://www.w3.org/2000/svg">
<path d="M125.961 74.8338C126.273 73.0477 124.684 72.0875 122.512 71.4469L123.217 69.0273L121.496 68.6602L120.81 71.0161C120.358 70.9197 119.894 70.8285 119.432 70.7384L120.123 68.3669L118.404 68L117.699 70.4188C117.325 70.3457 116.957 70.2735 116.6 70.1977L116.602 70.1901L114.23 69.683L113.772 71.2561C113.772 71.2561 115.048 71.5066 115.022 71.5219C115.718 71.671 115.845 72.0656 115.823 72.3786L115.021 75.1352C115.069 75.1456 115.131 75.1607 115.199 75.1841L115.018 75.1456L113.893 79.0072C113.807 79.1884 113.591 79.4601 113.104 79.3568C113.122 79.3783 111.854 79.0898 111.854 79.0898L111 80.7762L113.239 81.2539C113.656 81.3433 114.064 81.4368 114.465 81.525L113.753 83.9727L115.471 84.3396L116.177 81.9183C116.646 82.0275 117.101 82.1281 117.547 82.223L116.845 84.6329L118.565 85L119.277 82.5574C122.21 83.0325 124.417 82.8408 125.344 80.5696C126.092 78.7407 125.307 77.6857 123.764 76.9973C124.888 76.7745 125.735 76.1416 125.96 74.8338H125.961ZM122.03 79.5528C121.498 81.3818 117.902 80.3935 116.735 80.1452L117.68 76.9029C118.846 77.1521 122.585 77.6453 122.03 79.5528H122.03ZM122.562 74.8074C122.077 76.4713 119.083 75.626 118.111 75.4186L118.968 72.4781C119.939 72.6853 123.067 73.072 122.562 74.8074Z" fill="white"/>
<path d="M132.686 77.5155C132.595 77.1306 132.408 76.8219 132.124 76.5891C131.841 76.356 131.497 76.2398 131.092 76.2398C130.666 76.2398 130.32 76.3511 130.051 76.5739C129.783 76.7965 129.614 77.1104 129.543 77.5155H132.686ZM129.467 79.1102C129.467 80.2948 130.024 80.8871 131.137 80.8871C131.735 80.8871 132.185 80.6441 132.489 80.1581H135.147C134.61 81.94 133.269 82.8311 131.122 82.8311C130.464 82.8311 129.862 82.7324 129.315 82.5349C128.768 82.3375 128.3 82.0565 127.91 81.692C127.52 81.3275 127.219 80.8921 127.006 80.3859C126.794 79.8795 126.687 79.3126 126.687 78.6849C126.687 78.0369 126.789 77.4521 126.991 76.9308C127.194 76.4092 127.482 75.9664 127.857 75.6019C128.231 75.2374 128.684 74.9564 129.216 74.759C129.748 74.5615 130.348 74.4628 131.016 74.4628C131.674 74.4628 132.266 74.5615 132.793 74.759C133.319 74.9564 133.765 75.2424 134.129 75.6171C134.494 75.9916 134.772 76.4498 134.964 76.9915C135.157 77.5331 135.253 78.1432 135.253 78.8216V79.1102H129.467Z" fill="white"/>
<path d="M139.885 77.0452V82.5431H137.136V77.0452H136.225V74.7519H137.136V72.4131H139.885V74.7519H141.449V77.0452H139.885Z" fill="white"/>
<path d="M145.55 77.0452V82.5431H142.801V77.0452H141.89V74.7519H142.801V72.4131H145.55V74.7519H147.114V77.0452H145.55Z" fill="white"/>
<path d="M153.843 77.5155C153.752 77.1306 153.565 76.8219 153.281 76.5891C152.998 76.356 152.654 76.2398 152.249 76.2398C151.823 76.2398 151.477 76.3511 151.208 76.5739C150.94 76.7965 150.77 77.1104 150.699 77.5155H153.843ZM150.623 79.1102C150.623 80.2948 151.18 80.8871 152.294 80.8871C152.892 80.8871 153.342 80.6441 153.646 80.1581H156.304C155.767 81.94 154.426 82.8311 152.279 82.8311C151.621 82.8311 151.018 82.7324 150.472 82.5349C149.925 82.3375 149.457 82.0565 149.067 81.692C148.677 81.3275 148.376 80.8921 148.163 80.3859C147.95 79.8795 147.844 79.3126 147.844 78.6849C147.844 78.0369 147.945 77.4521 148.148 76.9308C148.351 76.4092 148.639 75.9664 149.014 75.6019C149.388 75.2374 149.841 74.9564 150.373 74.759C150.904 74.5615 151.504 74.4628 152.173 74.4628C152.831 74.4628 153.423 74.5615 153.949 74.759C154.476 74.9564 154.921 75.2424 155.286 75.6171C155.65 75.9916 155.929 76.4498 156.121 76.9915C156.314 77.5331 156.41 78.1432 156.41 78.8216V79.1102H150.623Z" fill="white"/>
<path d="M157.973 74.7501H160.722V76.0258C161.016 75.56 161.375 75.2031 161.8 74.9551C162.225 74.7069 162.722 74.583 163.289 74.583C163.36 74.583 163.438 74.583 163.524 74.583C163.61 74.583 163.709 74.593 163.82 74.6134V77.2408C163.456 77.0586 163.061 76.9674 162.636 76.9674C161.998 76.9674 161.519 77.1573 161.2 77.537C160.881 77.9166 160.722 78.471 160.722 79.2V82.5412H157.973V74.7501Z" fill="white"/>
<path d="M186.404 77.272C185.928 76.9479 185.447 76.786 184.961 76.786C184.698 76.786 184.452 76.8316 184.224 76.9227C183.996 77.0139 183.797 77.1429 183.624 77.31C183.452 77.4771 183.318 77.6745 183.222 77.9023C183.126 78.1301 183.078 78.3857 183.078 78.6693C183.078 78.9426 183.126 79.1932 183.222 79.4211C183.318 79.6489 183.45 79.8463 183.617 80.0134C183.784 80.1804 183.984 80.3095 184.217 80.4006C184.45 80.4918 184.698 80.5373 184.961 80.5373C185.477 80.5373 185.958 80.3601 186.404 80.0058V82.3446C185.725 82.6382 185.082 82.7851 184.475 82.7851C183.908 82.7851 183.369 82.6887 182.857 82.4965C182.346 82.3041 181.896 82.0281 181.506 81.6688C181.116 81.3093 180.805 80.879 180.572 80.3779C180.339 79.8767 180.222 79.3171 180.222 78.6997C180.222 78.082 180.334 77.5174 180.556 77.0063C180.779 76.4949 181.083 76.0544 181.468 75.685C181.853 75.3153 182.311 75.0267 182.842 74.8193C183.374 74.6116 183.943 74.5079 184.551 74.5079C185.219 74.5079 185.837 74.6496 186.404 74.9332V77.272Z" fill="white"/>
<path d="M187.969 74.7501H190.718V76.0258C191.012 75.56 191.371 75.2031 191.796 74.9551C192.222 74.7069 192.718 74.583 193.285 74.583C193.356 74.583 193.434 74.583 193.52 74.583C193.606 74.583 193.705 74.593 193.816 74.6134V77.2408C193.452 77.0586 193.057 76.9674 192.632 76.9674C191.994 76.9674 191.515 77.1573 191.196 77.537C190.877 77.9166 190.718 78.471 190.718 79.2V82.5412H187.969V74.7501Z" fill="white"/>
<path d="M197.582 78.6237C197.582 78.8767 197.627 79.1121 197.719 79.3299C197.81 79.5475 197.934 79.7374 198.091 79.8995C198.248 80.0613 198.435 80.188 198.653 80.2791C198.87 80.3703 199.106 80.4158 199.359 80.4158C199.602 80.4158 199.832 80.3703 200.05 80.2791C200.268 80.188 200.455 80.0613 200.612 79.8995C200.769 79.7374 200.895 79.5501 200.991 79.3375C201.088 79.1249 201.136 78.8971 201.136 78.6541C201.136 78.4111 201.088 78.1807 200.991 77.9631C200.895 77.7452 200.769 77.5554 200.612 77.3935C200.455 77.2315 200.268 77.105 200.05 77.0139C199.832 76.9227 199.602 76.8772 199.359 76.8772C199.106 76.8772 198.87 76.9227 198.653 77.0139C198.435 77.105 198.248 77.2315 198.091 77.3935C197.934 77.5554 197.81 77.7402 197.719 77.9479C197.627 78.1553 197.582 78.3807 197.582 78.6237ZM201.045 74.7509H203.809V82.5421H201.045V81.6764C200.458 82.4154 199.663 82.7851 198.66 82.7851C198.093 82.7851 197.572 82.6811 197.096 82.4737C196.62 82.2661 196.205 81.9749 195.851 81.6004C195.496 81.2257 195.22 80.7853 195.023 80.2791C194.825 79.7728 194.727 79.221 194.727 78.6237C194.727 78.0668 194.823 77.5378 195.015 77.0366C195.208 76.5355 195.476 76.0974 195.82 75.7229C196.164 75.3482 196.575 75.0521 197.05 74.8345C197.526 74.6166 198.053 74.5079 198.63 74.5079C199.602 74.5079 200.407 74.847 201.045 75.5255V74.7509Z" fill="white"/>
<path d="M208.745 77.0452V82.5431H205.996V77.0452H205.085V74.7519H205.996V72.4131H208.745V74.7519H210.309V77.0452H208.745Z" fill="white"/>
<path d="M217.22 77.272C216.744 76.9479 216.263 76.786 215.777 76.786C215.514 76.786 215.268 76.8316 215.041 76.9227C214.813 77.0139 214.613 77.1429 214.441 77.31C214.269 77.4771 214.135 77.6745 214.038 77.9023C213.942 78.1301 213.894 78.3857 213.894 78.6693C213.894 78.9426 213.942 79.1932 214.038 79.4211C214.135 79.6489 214.266 79.8463 214.433 80.0134C214.6 80.1804 214.8 80.3095 215.033 80.4006C215.266 80.4918 215.514 80.5373 215.777 80.5373C216.294 80.5373 216.775 80.3601 217.22 80.0058V82.3446C216.542 82.6382 215.899 82.7851 215.291 82.7851C214.724 82.7851 214.185 82.6887 213.674 82.4965C213.163 82.3041 212.712 82.0281 212.322 81.6688C211.932 81.3093 211.621 80.879 211.388 80.3779C211.155 79.8767 211.039 79.3171 211.039 78.6997C211.039 78.082 211.15 77.5174 211.373 77.0063C211.596 76.4949 211.899 76.0544 212.284 75.685C212.669 75.3153 213.127 75.0267 213.659 74.8193C214.19 74.6116 214.76 74.5079 215.367 74.5079C216.035 74.5079 216.653 74.6496 217.22 74.9332V77.272Z" fill="white"/>
<path d="M218.784 69.9353H221.533V75.7369C221.907 75.2812 222.287 74.9749 222.672 74.818C223.056 74.661 223.507 74.5826 224.023 74.5826C225.005 74.5826 225.747 74.8534 226.248 75.3952C226.749 75.9367 227 76.6683 227 77.5897V82.5408H224.251V78.6073C224.251 78.2124 224.221 77.8935 224.16 77.6505C224.099 77.4075 223.998 77.22 223.856 77.0885C223.613 76.8759 223.32 76.7696 222.975 76.7696C222.51 76.7696 222.153 76.9087 221.905 77.1873C221.657 77.4656 221.533 77.8631 221.533 78.3795V82.5408H218.784V69.9353Z" fill="white"/>
<path d="M173.789 76.7469C172.721 75.9239 172.05 75.1952 171.775 74.5605C171.499 73.9259 171.491 73.1813 171.748 72.3265C172.079 71.2282 172.69 70.4712 173.582 70.0553C174.474 69.6394 175.535 69.6164 176.763 69.9861C177.32 70.1538 177.858 70.3853 178.377 70.6802C178.896 70.975 179.391 71.3291 179.863 71.7426L179.159 74.0798C178.754 73.5625 178.315 73.1295 177.842 72.7806C177.369 72.4315 176.873 72.179 176.353 72.0225C175.774 71.8483 175.296 71.8309 174.917 71.9709C174.539 72.1106 174.285 72.3968 174.154 72.8296C174.053 73.165 174.082 73.4762 174.241 73.763C174.399 74.0496 174.796 74.433 175.43 74.9131L176.343 75.613C177.21 76.2633 177.784 76.9523 178.066 77.6805C178.349 78.4086 178.355 79.2218 178.084 80.12C177.716 81.3426 177.08 82.1469 176.176 82.5326C175.272 82.9184 174.09 82.8915 172.629 82.4517C172.029 82.271 171.448 82.018 170.889 81.6932C170.328 81.3682 169.809 80.9802 169.331 80.5296L170.077 78.0543C170.578 78.7011 171.094 79.2252 171.626 79.6271C172.157 80.0289 172.714 80.3176 173.299 80.4936C173.888 80.6711 174.386 80.6748 174.791 80.5047C175.196 80.3348 175.471 80.0089 175.616 79.5275C175.725 79.1649 175.713 78.8145 175.579 78.4761C175.445 78.1378 175.195 77.8282 174.832 77.5475L173.789 76.7469Z" fill="white"/>
<path d="M174.598 67L176 67.5531L175.402 71L174 70.4469L174.598 67Z" fill="white"/>
<path d="M176.897 68L179 68.5529L178.103 72L176 71.4469L176.897 68Z" fill="white"/>
<path d="M170.598 81L172 81.5531L171.402 85L170 84.4469L170.598 81Z" fill="white"/>
<path d="M173.598 82L175 82.4148L174.402 85L173 84.5852L173.598 82Z" fill="white"/>
<path d="M119.501 19.349V56.4461H113.902V19.349H119.501Z" fill="white"/>
<path d="M138.651 24.6109V56.4461H133.053V24.6109H124.524V19.349H147.157V24.6109H138.651Z" fill="white"/>
<path d="M179.566 21.3403V27.9716C176.33 25.2648 172.982 23.9112 169.523 23.9112C165.71 23.9112 162.499 25.2808 159.888 28.0195C157.261 30.7427 155.948 34.0744 155.948 38.0146C155.948 41.9072 157.261 45.1905 159.888 47.8657C162.515 50.5404 165.734 51.878 169.547 51.878C171.517 51.878 173.191 51.5578 174.568 50.9169C175.337 50.5966 176.134 50.164 176.959 49.6195C177.784 49.0749 178.653 48.418 179.566 47.6492V54.4007C176.362 56.2106 172.999 57.1156 169.475 57.1156C164.173 57.1156 159.648 55.2659 155.899 51.5656C152.168 47.8337 150.301 43.3325 150.301 38.063C150.301 33.3375 151.863 29.125 154.987 25.4247C158.831 20.8918 163.804 18.6253 169.907 18.6253C173.238 18.6253 176.458 19.5303 179.566 21.3403Z" fill="white"/>
<path d="M192.228 33.8612H208.229V19.349H213.827V56.4461H208.229V39.123H192.228V56.4461H186.629V19.349H192.228V33.8612Z" fill="white"/>
<path d="M230.214 40.4204L218.104 19.349H224.543L233.025 34.1733L241.53 19.349H247.969L235.812 40.4204V56.4461H230.214V40.4204Z" fill="white"/>
<path d="M273.224 24.8722L268.683 27.5631C267.834 26.0894 267.025 25.1287 266.256 24.68C265.455 24.1675 264.422 23.9112 263.157 23.9112C261.603 23.9112 260.314 24.3516 259.288 25.2328C258.263 26.0976 257.751 27.1867 257.751 28.5001C257.751 30.3101 259.096 31.7678 261.787 32.8729L265.487 34.3868C268.499 35.6039 270.701 37.0899 272.095 38.8437C273.488 40.5975 274.185 42.7478 274.185 45.2946C274.185 48.7067 273.048 51.5258 270.773 53.752C268.483 55.9945 265.64 57.1156 262.244 57.1156C259.024 57.1156 256.365 56.1627 254.267 54.2567C252.201 52.3504 250.911 49.6674 250.399 46.2078L256.069 44.9584C256.325 47.1366 256.774 48.6423 257.414 49.4755C258.567 51.0772 260.25 51.878 262.46 51.878C264.206 51.878 265.656 51.2933 266.809 50.1242C267.962 48.9548 268.539 47.4732 268.539 45.6793C268.539 44.9584 268.439 44.2978 268.238 43.6971C268.038 43.0963 267.726 42.5436 267.301 42.0392C266.877 41.5345 266.328 41.0621 265.656 40.6217C264.983 40.1813 264.182 39.7606 263.253 39.3604L259.673 37.8706C254.595 35.724 252.057 32.5846 252.057 28.4521C252.057 25.665 253.122 23.3345 255.252 21.4605C257.382 19.5704 260.033 18.6253 263.205 18.6253C267.482 18.6253 270.821 20.7076 273.224 24.8722Z" fill="white"/>
<path d="M302.728 47.4393H286.847L282.714 56.4494H276.683L295.04 17.0217L312.747 56.4494H306.621L302.728 47.4393ZM300.446 42.1775L294.944 29.5634L289.177 42.1775H300.446Z" fill="white"/>
<path d="M327.618 24.6109V56.4461H322.02V24.6109H313.491V19.349H336.123V24.6109H327.618Z" fill="white"/>
<path d="M362.095 24.8722L357.556 27.5631C356.707 26.0894 355.9 25.1287 355.129 24.68C354.329 24.1675 353.296 23.9112 352.029 23.9112C350.476 23.9112 349.187 24.3516 348.161 25.2328C347.136 26.0976 346.624 27.1867 346.624 28.5001C346.624 30.3101 347.969 31.7678 350.66 32.8729L354.362 34.3868C357.372 35.6039 359.574 37.0899 360.968 38.8437C362.362 40.5975 363.059 42.7478 363.059 45.2946C363.059 48.7067 361.919 51.5258 359.647 53.752C357.355 55.9945 354.514 57.1156 351.117 57.1156C347.897 57.1156 345.238 56.1627 343.14 54.2567C341.073 52.3504 339.784 49.6674 339.271 46.2078L344.942 44.9584C345.198 47.1366 345.647 48.6423 346.287 49.4755C347.441 51.0772 349.122 51.878 351.333 51.878C353.078 51.878 354.53 51.2933 355.682 50.1242C356.834 48.9548 357.413 47.4732 357.413 45.6793C357.413 44.9584 357.31 44.2978 357.109 43.6971C356.912 43.0963 356.597 42.5436 356.174 42.0392C355.748 41.5345 355.202 41.0621 354.53 40.6217C353.857 40.1813 353.054 39.7606 352.127 39.3604L348.546 37.8706C343.468 35.724 340.929 32.5846 340.929 28.4521C340.929 25.665 341.994 23.3345 344.125 21.4605C346.255 19.5704 348.906 18.6253 352.078 18.6253C356.355 18.6253 359.693 20.7076 362.095 24.8722Z" fill="white"/>
<path d="M49.3452 0H50.6548C77.9074 0 100 22.3858 100 50C100 77.6143 77.9074 100 50.6548 100H49.3452C22.0927 100 0 77.6143 0 50C0 22.3858 22.0927 0 49.3452 0Z" fill="#F7931A"/>
<path d="M49.3876 3.1777H50.6138C76.136 3.1777 96.8261 24.1421 96.8261 50.0031C96.8261 75.8641 76.136 96.8285 50.6138 96.8285H49.3876C23.8652 96.8285 3.17528 75.8641 3.17528 50.0031C3.17528 24.1421 23.8652 3.1777 49.3876 3.1777Z" fill="black"/>
<path d="M76.9782 42.8462C78.2335 35.1748 71.8345 31.0509 63.0844 28.2996L65.9228 17.9078L58.9905 16.3314L56.2271 26.4494C54.4075 26.035 52.5363 25.6441 50.6769 25.2567L53.4598 15.072L46.5337 13.4955L43.6933 23.8838C42.1855 23.5704 40.7052 23.2605 39.2682 22.9344L39.276 22.9019L29.7186 20.7238L27.8751 27.4799C27.8751 27.4799 33.017 28.5555 32.9084 28.6221C35.7151 29.2618 36.2243 30.9571 36.1375 32.3012L32.9044 44.1399C33.0979 44.1846 33.3484 44.2496 33.625 44.3507L32.8946 44.1846L28.3606 60.769C28.0171 61.5473 27.1468 62.7146 25.1848 62.2715C25.2539 62.3633 20.1476 61.124 20.1476 61.124L16.7072 68.3665L25.7276 70.4185C27.4053 70.8023 29.0496 71.2041 30.6663 71.5823L27.7981 82.0951L34.7205 83.6715L37.5628 73.2723C39.4516 73.7407 41.2872 74.1732 43.0836 74.5802L40.2531 84.9307L47.1831 86.5071L50.0512 76.0163C61.8684 78.0574 70.7567 77.2341 74.4931 67.4802C77.507 59.6249 74.345 55.0936 68.1274 52.1371C72.6556 51.1805 76.0662 48.462 76.9763 42.8462H76.9782ZM61.1422 63.1127C58.9986 70.9681 44.5105 66.7235 39.811 65.6569L43.6163 51.7317C48.3141 52.802 63.3764 54.9209 61.1441 63.1127H61.1422ZM63.2838 42.7326C61.3297 49.8779 49.2696 46.2476 45.3554 45.3576L48.8057 32.7281C52.7197 33.618 65.3207 35.2792 63.2838 42.7326Z" fill="#F7931A" fill-opacity="0.49935"/>
<path d="M16.9251 55.8744C16.9251 55.2313 16.8529 55.0684 17.5071 54.4195C23.2541 48.7186 29.0701 43.0861 34.9675 37.5412C36.2614 36.3242 37.9061 35.5438 39.3324 34.4856C43.5409 31.363 48.0612 28.8872 52.8643 26.7738C56.4773 25.1841 60.0981 24.3377 63.9225 23.5728C64.6652 23.4242 65.4952 23.6567 66.2505 23.5728C67.0243 23.4868 67.706 23.2331 68.433 22.9908C68.8974 22.836 70.0637 22.9057 69.7426 22.2633" fill="black"/>
<path d="M16.9251 55.8744C16.9251 55.2313 16.8529 55.0684 17.5071 54.4195C23.2541 48.7186 29.0701 43.0861 34.9675 37.5412C36.2614 36.3242 37.9061 35.5438 39.3324 34.4856C43.5409 31.363 48.0612 28.8872 52.8643 26.7738C56.4773 25.1841 60.0981 24.3377 63.9225 23.5728C64.6652 23.4242 65.4952 23.6567 66.2505 23.5728C67.0243 23.4868 67.706 23.2331 68.433 22.9908C68.8974 22.836 70.0637 22.9057 69.7426 22.2633" stroke="black" stroke-width="0.00800313"/>
<path d="M15.7611 70.7161C14.9374 70.7161 15.8424 69.3054 16.0521 68.97C16.9524 67.5294 17.9686 66.016 19.1077 64.7504C20.0583 63.6941 21.2634 62.936 22.3087 61.9859C23.4979 60.9047 24.4449 59.5697 25.6553 58.4938C27.1653 57.1515 28.9823 56.3044 30.6024 55.1471C32.2445 53.9741 33.7156 52.6351 35.404 51.5097C36.2511 50.9448 37.1484 50.4339 38.0229 49.909C39.0475 49.2945 39.8518 48.1786 41.0785 47.8721C44.2809 47.0714 47.5207 45.7291 50.3907 44.0889C54.4385 41.7759 58.3927 39.7606 62.7585 38.1235C63.5303 37.834 64.1809 37.1938 64.941 36.8139C67.4062 35.5813 69.9212 34.2915 72.5071 33.3218C74.0603 32.7392 75.7377 32.536 77.3088 32.0122C78.9062 31.4798 80.51 30.7317 82.1104 30.4118C83.0317 30.2275 84.3299 30.2477 85.1658 29.8297" fill="black"/>
<path d="M15.7611 70.7161C14.9374 70.7161 15.8424 69.3054 16.0521 68.97C16.9524 67.5294 17.9686 66.016 19.1077 64.7504C20.0583 63.6941 21.2634 62.936 22.3087 61.9859C23.4979 60.9047 24.4449 59.5697 25.6553 58.4938C27.1653 57.1515 28.9823 56.3044 30.6024 55.1471C32.2445 53.9741 33.7156 52.6351 35.404 51.5097C36.2511 50.9448 37.1484 50.4339 38.0229 49.909C39.0475 49.2945 39.8518 48.1786 41.0785 47.8721C44.2809 47.0714 47.5207 45.7291 50.3907 44.0889C54.4385 41.7759 58.3927 39.7606 62.7585 38.1235C63.5303 37.834 64.1809 37.1938 64.941 36.8139C67.4062 35.5813 69.9212 34.2915 72.5071 33.3218C74.0603 32.7392 75.7377 32.536 77.3088 32.0122C78.9062 31.4798 80.51 30.7317 82.1104 30.4118C83.0317 30.2275 84.3299 30.2477 85.1658 29.8297" stroke="black" stroke-width="0.00800313"/>
<path d="M29.8743 75.5151C28.9799 75.5151 30.1691 74.4773 30.3111 74.3511C31.6548 73.1565 33.1441 72.1462 34.5304 71.0046C35.4598 70.2392 36.2247 69.2879 37.1496 68.531C39.8105 66.3541 42.9437 64.3721 45.8798 62.5656C50.0566 59.9951 54.4705 57.7494 58.9749 55.8723C60.5527 55.215 62.103 54.3082 63.631 53.5443C65.1276 52.796 66.7697 52.5507 68.287 51.9438C70.7461 50.9601 73.2499 50.0497 75.8532 49.6158C76.7834 49.4607 77.6527 48.758 78.6179 48.5973C80.0101 48.3652 81.3382 47.9949 82.692 47.7242C83.0047 47.6617 84.0408 47.7465 84.2925 47.5786C84.6628 47.3317 84.4674 47.2877 85.0201 47.2877" fill="black"/>
<path d="M29.8743 75.5151C28.9799 75.5151 30.1691 74.4773 30.3111 74.3511C31.6548 73.1565 33.1441 72.1462 34.5304 71.0046C35.4598 70.2392 36.2247 69.2879 37.1496 68.531C39.8105 66.3541 42.9437 64.3721 45.8798 62.5656C50.0566 59.9951 54.4705 57.7494 58.9749 55.8723C60.5527 55.215 62.103 54.3082 63.631 53.5443C65.1276 52.796 66.7697 52.5507 68.287 51.9438C70.7461 50.9601 73.2499 50.0497 75.8532 49.6158C76.7834 49.4607 77.6527 48.758 78.6179 48.5973C80.0101 48.3652 81.3382 47.9949 82.692 47.7242C83.0047 47.6617 84.0408 47.7465 84.2925 47.5786C84.6628 47.3317 84.4674 47.2877 85.0201 47.2877" stroke="black" stroke-width="0.00800313"/>
<path d="M16.9251 55.8744C16.9251 55.2313 16.8529 55.0684 17.5071 54.4195C23.2541 48.7186 29.0701 43.0861 34.9675 37.5412C36.2614 36.3242 37.9061 35.5438 39.3324 34.4856C43.5409 31.363 48.0612 28.8872 52.8643 26.7738C56.4773 25.1841 60.0981 24.3377 63.9225 23.5728C64.6652 23.4242 65.4952 23.6567 66.2505 23.5728C67.0243 23.4868 67.706 23.2331 68.433 22.9908C68.8974 22.836 70.0637 22.9057 69.7426 22.2633" fill="white"/>
<path d="M16.9251 55.8744C16.9251 55.2313 16.8529 55.0684 17.5071 54.4195C23.2541 48.7186 29.0701 43.0861 34.9675 37.5412C36.2614 36.3242 37.9061 35.5438 39.3324 34.4856C43.5409 31.363 48.0612 28.8872 52.8643 26.7738C56.4773 25.1841 60.0981 24.3377 63.9225 23.5728C64.6652 23.4242 65.4952 23.6567 66.2505 23.5728C67.0243 23.4868 67.706 23.2331 68.433 22.9908C68.8974 22.836 70.0637 22.9057 69.7426 22.2633" stroke="white" stroke-width="0.00800313"/>
<path d="M15.7611 70.7161C14.9374 70.7161 15.8424 69.3054 16.0521 68.97C16.9524 67.5294 17.9686 66.016 19.1077 64.7504C20.0583 63.6941 21.2634 62.936 22.3087 61.9859C23.4979 60.9047 24.4449 59.5697 25.6553 58.4938C27.1653 57.1515 28.9823 56.3044 30.6024 55.1471C32.2445 53.9741 33.7156 52.6351 35.404 51.5097C36.2511 50.9448 37.1484 50.4339 38.0229 49.909C39.0475 49.2945 39.8518 48.1786 41.0785 47.8721C44.2809 47.0714 47.5207 45.7291 50.3907 44.0889C54.4385 41.7759 58.3927 39.7606 62.7585 38.1235C63.5303 37.834 64.1809 37.1938 64.941 36.8139C67.4062 35.5813 69.9212 34.2915 72.5071 33.3218C74.0603 32.7392 75.7377 32.536 77.3088 32.0122C78.9062 31.4798 80.51 30.7317 82.1104 30.4118C83.0317 30.2275 84.3299 30.2477 85.1658 29.8297" fill="white"/>
<path d="M15.7611 70.7161C14.9374 70.7161 15.8424 69.3054 16.0521 68.97C16.9524 67.5294 17.9686 66.016 19.1077 64.7504C20.0583 63.6941 21.2634 62.936 22.3087 61.9859C23.4979 60.9047 24.4449 59.5697 25.6553 58.4938C27.1653 57.1515 28.9823 56.3044 30.6024 55.1471C32.2445 53.9741 33.7156 52.6351 35.404 51.5097C36.2511 50.9448 37.1484 50.4339 38.0229 49.909C39.0475 49.2945 39.8518 48.1786 41.0785 47.8721C44.2809 47.0714 47.5207 45.7291 50.3907 44.0889C54.4385 41.7759 58.3927 39.7606 62.7585 38.1235C63.5303 37.834 64.1809 37.1938 64.941 36.8139C67.4062 35.5813 69.9212 34.2915 72.5071 33.3218C74.0603 32.7392 75.7377 32.536 77.3088 32.0122C78.9062 31.4798 80.51 30.7317 82.1104 30.4118C83.0317 30.2275 84.3299 30.2477 85.1658 29.8297" stroke="white" stroke-width="0.00800313"/>
<path d="M29.8743 75.5151C28.9799 75.5151 30.1691 74.4773 30.3111 74.3511C31.6548 73.1565 33.1441 72.1462 34.5304 71.0046C35.4598 70.2392 36.2247 69.2879 37.1496 68.531C39.8105 66.3541 42.9437 64.3721 45.8798 62.5656C50.0566 59.9951 54.4705 57.7494 58.9749 55.8723C60.5527 55.215 62.103 54.3082 63.631 53.5443C65.1276 52.796 66.7697 52.5507 68.287 51.9438C70.7461 50.9601 73.2499 50.0497 75.8532 49.6158C76.7834 49.4607 77.6527 48.758 78.6179 48.5973C80.0101 48.3652 81.3382 47.9949 82.692 47.7242C83.0047 47.6617 84.0408 47.7465 84.2925 47.5786C84.6628 47.3317 84.4674 47.2877 85.0201 47.2877" fill="white"/>
<path d="M29.8743 75.5151C28.9799 75.5151 30.1691 74.4773 30.3111 74.3511C31.6548 73.1565 33.1441 72.1462 34.5304 71.0046C35.4598 70.2392 36.2247 69.2879 37.1496 68.531C39.8105 66.3541 42.9437 64.3721 45.8798 62.5656C50.0566 59.9951 54.4705 57.7494 58.9749 55.8723C60.5527 55.215 62.103 54.3082 63.631 53.5443C65.1276 52.796 66.7697 52.5507 68.287 51.9438C70.7461 50.9601 73.2499 50.0497 75.8532 49.6158C76.7834 49.4607 77.6527 48.758 78.6179 48.5973C80.0101 48.3652 81.3382 47.9949 82.692 47.7242C83.0047 47.6617 84.0408 47.7465 84.2925 47.5786C84.6628 47.3317 84.4674 47.2877 85.0201 47.2877" stroke="white" stroke-width="0.00800313"/>
</svg>
