<svg width="179" height="179" viewBox="0 0 179 179" fill="none" xmlns="http://www.w3.org/2000/svg">
<path d="M88.3279 0H90.6721C139.454 0 179 40.0705 179 89.5C179 138.93 139.454 179 90.6721 179H88.3279C39.5459 179 0 138.93 0 89.5C0 40.0705 39.5459 0 88.3279 0Z" fill="#F7931A"/>
<path d="M88.4026 5.68115H90.5974C136.282 5.68115 173.317 43.2075 173.317 89.4986C173.317 135.79 136.282 173.316 90.5974 173.316H88.4026C42.7175 173.316 5.68252 135.79 5.68252 89.4986C5.68252 43.2075 42.7175 5.68115 88.4026 5.68115Z" fill="black"/>
<path d="M137.789 76.6935C140.036 62.9617 128.582 55.5799 112.919 50.655L118 32.0538L105.591 29.2319L100.645 47.3432C97.3874 46.6015 94.038 45.9017 90.7097 45.2083L95.6912 26.9776L83.2933 24.1558L78.2091 42.7509C75.5101 42.1897 72.8603 41.635 70.2881 41.0513L70.3021 40.9933L53.1944 37.0943L49.8945 49.1879C49.8945 49.1879 59.0984 51.1131 58.904 51.2323C63.9281 52.3773 64.8396 55.412 64.6842 57.8179L58.897 79.0091C59.2432 79.0893 59.6917 79.2055 60.1868 79.3864L58.8794 79.0893L50.7635 108.775C50.1487 110.168 48.5908 112.258 45.0788 111.465C45.2025 111.629 36.0622 109.411 36.0622 109.411L29.9039 122.375L46.0504 126.048C49.0536 126.735 51.9968 127.454 54.8906 128.131L49.7567 146.949L62.1477 149.771L67.2354 131.156C70.6163 131.995 73.9021 132.769 77.1177 133.497L72.051 152.025L84.4559 154.846L89.5897 136.068C110.742 139.722 126.652 138.248 133.341 120.788C138.736 106.727 133.076 98.6164 121.946 93.3242C130.051 91.6119 136.156 86.7457 137.786 76.6935H137.789ZM109.443 112.971C105.606 127.032 79.6718 119.434 71.2598 117.525L78.0713 92.5986C86.4803 94.5143 113.442 98.3072 109.446 112.971H109.443ZM113.276 76.4901C109.778 89.2803 88.1906 82.7819 81.1842 81.1889L87.3603 58.582C94.3662 60.1751 116.922 63.1486 113.276 76.4901Z" fill="#F7931A" fill-opacity="0.49935"/>
<path d="M30.296 100.014C30.296 98.8628 30.1667 98.5712 31.3378 97.4096C41.625 87.2051 52.0356 77.1228 62.5919 67.1974C64.908 65.0191 67.852 63.6221 70.4051 61.7279C77.9382 56.1385 86.0296 51.7068 94.6271 47.9239C101.094 45.0783 107.576 43.5632 114.421 42.194C115.751 41.9281 117.236 42.3443 118.588 42.194C119.974 42.0401 121.194 41.586 122.495 41.1522C123.326 40.8752 125.414 41 124.839 39.85" fill="black"/>
<path d="M30.296 100.014C30.296 98.8628 30.1667 98.5712 31.3378 97.4096C41.625 87.2051 52.0356 77.1228 62.5919 67.1974C64.908 65.0191 67.852 63.6221 70.4051 61.7279C77.9382 56.1385 86.0296 51.7068 94.6271 47.9239C101.094 45.0783 107.576 43.5632 114.421 42.194C115.751 41.9281 117.236 42.3443 118.588 42.194C119.974 42.0401 121.194 41.586 122.495 41.1522C123.326 40.8752 125.414 41 124.839 39.85" stroke="black" stroke-width="0.0254068"/>
<path d="M28.2128 126.578C26.7383 126.578 28.3583 124.053 28.7337 123.453C30.3453 120.874 32.1642 118.165 34.2032 115.9C35.9047 114.009 38.062 112.652 39.9331 110.951C42.0617 109.016 43.7567 106.626 45.9234 104.701C48.6262 102.298 51.8787 100.781 54.7786 98.7099C57.7181 96.6103 60.3514 94.2135 63.3736 92.199C64.8899 91.1878 66.496 90.2733 68.0614 89.3337C69.8955 88.2338 71.3352 86.2364 73.531 85.6877C79.2632 84.2545 85.0624 81.8517 90.1998 78.9157C97.4453 74.7756 104.523 71.1681 112.338 68.2377C113.72 67.7195 114.884 66.5735 116.245 65.8935C120.658 63.6871 125.159 61.3785 129.788 59.6427C132.568 58.5999 135.571 58.2361 138.383 57.2985C141.242 56.3454 144.113 55.0065 146.978 54.4337C148.627 54.104 150.951 54.1401 152.447 53.3919" fill="black"/>
<path d="M28.2128 126.578C26.7383 126.578 28.3583 124.053 28.7337 123.453C30.3453 120.874 32.1642 118.165 34.2032 115.9C35.9047 114.009 38.062 112.652 39.9331 110.951C42.0617 109.016 43.7567 106.626 45.9234 104.701C48.6262 102.298 51.8787 100.781 54.7786 98.7099C57.7181 96.6103 60.3514 94.2135 63.3736 92.199C64.8899 91.1878 66.496 90.2733 68.0614 89.3337C69.8955 88.2338 71.3352 86.2364 73.531 85.6877C79.2632 84.2545 85.0624 81.8517 90.1998 78.9157C97.4453 74.7756 104.523 71.1681 112.338 68.2377C113.72 67.7195 114.884 66.5735 116.245 65.8935C120.658 63.6871 125.159 61.3785 129.788 59.6427C132.568 58.5999 135.571 58.2361 138.383 57.2985C141.242 56.3454 144.113 55.0065 146.978 54.4337C148.627 54.104 150.951 54.1401 152.447 53.3919" stroke="black" stroke-width="0.0254068"/>
<path d="M53.4767 135.176C51.8757 135.176 54.0044 133.319 54.2584 133.093C56.6637 130.954 59.3296 129.146 61.8111 127.102C63.4748 125.732 64.8438 124.03 66.4994 122.675C71.2625 118.778 76.8708 115.23 82.1264 111.997C89.6029 107.395 97.5039 103.375 105.567 100.016C108.391 98.839 111.166 97.2159 113.901 95.8484C116.58 94.5089 119.519 94.07 122.235 92.9836C126.637 91.2227 131.119 89.5931 135.779 88.8164C137.444 88.5388 139 87.281 140.728 86.9933C143.22 86.5779 145.597 85.915 148.02 85.4304C148.58 85.3186 150.435 85.4705 150.885 85.1698C151.548 84.7278 151.198 84.6492 152.188 84.6492" fill="black"/>
<path d="M53.4767 135.176C51.8757 135.176 54.0044 133.319 54.2584 133.093C56.6637 130.954 59.3296 129.146 61.8111 127.102C63.4748 125.732 64.8438 124.03 66.4994 122.675C71.2625 118.778 76.8708 115.23 82.1264 111.997C89.6029 107.395 97.5039 103.375 105.567 100.016C108.391 98.839 111.166 97.2159 113.901 95.8484C116.58 94.5089 119.519 94.07 122.235 92.9836C126.637 91.2227 131.119 89.5931 135.779 88.8164C137.444 88.5388 139 87.281 140.728 86.9933C143.22 86.5779 145.597 85.915 148.02 85.4304C148.58 85.3186 150.435 85.4705 150.885 85.1698C151.548 84.7278 151.198 84.6492 152.188 84.6492" stroke="black" stroke-width="0.0254068"/>
<path d="M30.296 100.014C30.296 98.8628 30.1667 98.5712 31.3378 97.4096C41.625 87.2051 52.0356 77.1228 62.5919 67.1974C64.908 65.0191 67.852 63.6221 70.4051 61.7279C77.9382 56.1385 86.0296 51.7068 94.6271 47.9239C101.094 45.0783 107.576 43.5632 114.421 42.194C115.751 41.9281 117.236 42.3443 118.588 42.194C119.974 42.0401 121.194 41.586 122.495 41.1522C123.326 40.8752 125.414 41 124.839 39.85" fill="white"/>
<path d="M30.296 100.014C30.296 98.8628 30.1667 98.5712 31.3378 97.4096C41.625 87.2051 52.0356 77.1228 62.5919 67.1974C64.908 65.0191 67.852 63.6221 70.4051 61.7279C77.9382 56.1385 86.0296 51.7068 94.6271 47.9239C101.094 45.0783 107.576 43.5632 114.421 42.194C115.751 41.9281 117.236 42.3443 118.588 42.194C119.974 42.0401 121.194 41.586 122.495 41.1522C123.326 40.8752 125.414 41 124.839 39.85" stroke="white" stroke-width="0.0254068"/>
<path d="M28.2128 126.578C26.7383 126.578 28.3583 124.053 28.7337 123.453C30.3453 120.874 32.1642 118.165 34.2032 115.9C35.9047 114.009 38.062 112.652 39.9331 110.951C42.0617 109.016 43.7567 106.626 45.9234 104.701C48.6262 102.298 51.8787 100.781 54.7786 98.7099C57.7181 96.6103 60.3514 94.2135 63.3736 92.199C64.8899 91.1878 66.496 90.2733 68.0614 89.3337C69.8955 88.2338 71.3352 86.2364 73.531 85.6877C79.2632 84.2545 85.0624 81.8517 90.1998 78.9157C97.4453 74.7756 104.523 71.1681 112.338 68.2377C113.72 67.7195 114.884 66.5735 116.245 65.8935C120.658 63.6871 125.159 61.3785 129.788 59.6427C132.568 58.5999 135.571 58.2361 138.383 57.2985C141.242 56.3454 144.113 55.0065 146.978 54.4337C148.627 54.104 150.951 54.1401 152.447 53.3919" fill="white"/>
<path d="M28.2128 126.578C26.7383 126.578 28.3583 124.053 28.7337 123.453C30.3453 120.874 32.1642 118.165 34.2032 115.9C35.9047 114.009 38.062 112.652 39.9331 110.951C42.0617 109.016 43.7567 106.626 45.9234 104.701C48.6262 102.298 51.8787 100.781 54.7786 98.7099C57.7181 96.6103 60.3514 94.2135 63.3736 92.199C64.8899 91.1878 66.496 90.2733 68.0614 89.3337C69.8955 88.2338 71.3352 86.2364 73.531 85.6877C79.2632 84.2545 85.0624 81.8517 90.1998 78.9157C97.4453 74.7756 104.523 71.1681 112.338 68.2377C113.72 67.7195 114.884 66.5735 116.245 65.8935C120.658 63.6871 125.159 61.3785 129.788 59.6427C132.568 58.5999 135.571 58.2361 138.383 57.2985C141.242 56.3454 144.113 55.0065 146.978 54.4337C148.627 54.104 150.951 54.1401 152.447 53.3919" stroke="white" stroke-width="0.0254068"/>
<path d="M53.4767 135.176C51.8757 135.176 54.0044 133.319 54.2584 133.093C56.6637 130.954 59.3296 129.146 61.8111 127.102C63.4748 125.732 64.8438 124.03 66.4994 122.675C71.2625 118.778 76.8708 115.23 82.1264 111.997C89.6029 107.395 97.5039 103.375 105.567 100.016C108.391 98.839 111.166 97.2159 113.901 95.8484C116.58 94.5089 119.519 94.07 122.235 92.9836C126.637 91.2227 131.119 89.5931 135.779 88.8164C137.444 88.5388 139 87.281 140.728 86.9933C143.22 86.5779 145.597 85.915 148.02 85.4304C148.58 85.3186 150.435 85.4705 150.885 85.1698C151.548 84.7278 151.198 84.6492 152.188 84.6492" fill="white"/>
<path d="M53.4767 135.176C51.8757 135.176 54.0044 133.319 54.2584 133.093C56.6637 130.954 59.3296 129.146 61.8111 127.102C63.4748 125.732 64.8438 124.03 66.4994 122.675C71.2625 118.778 76.8708 115.23 82.1264 111.997C89.6029 107.395 97.5039 103.375 105.567 100.016C108.391 98.839 111.166 97.2159 113.901 95.8484C116.58 94.5089 119.519 94.07 122.235 92.9836C126.637 91.2227 131.119 89.5931 135.779 88.8164C137.444 88.5388 139 87.281 140.728 86.9933C143.22 86.5779 145.597 85.915 148.02 85.4304C148.58 85.3186 150.435 85.4705 150.885 85.1698C151.548 84.7278 151.198 84.6492 152.188 84.6492" stroke="white" stroke-width="0.0254068"/>
</svg>
